<svg xmlns="http://www.w3.org/2000/svg" xmlns:xlink="http://www.w3.org/1999/xlink" fill="none" version="1.1" width="40" height="40" viewBox="0 0 40 40"><defs><clipPath id="master_svg0_23488_69132/16155_40542"><rect x="0" y="0" width="40" height="40" rx="0"/></clipPath><mask id="master_svg1_23488_69132/16155_40542/16155_40482"><g><path d="M12.460233608398436,36.23831846923828C9.793733608398437,37.81061846923828,6.4285736083984375,35.88821846923828,6.4285736083984375,32.79271846923828L6.4285736083984375,7.207198469238281C6.4285736083984375,4.111686469238281,9.793733608398437,2.189318469238281,12.460233608398436,3.7615724692382813L34.15637360839844,16.554318469238282C36.780773608398434,18.10181846923828,36.780773608398434,21.89811846923828,34.15637360839844,23.44561846923828L12.460233608398436,36.23831846923828Z" fill="#FFFFFF" fill-opacity="1"/></g></mask></defs><g clip-path="url(#master_svg0_23488_69132/16155_40542)"><g mask="url(#master_svg1_23488_69132/16155_40542/16155_40482)"><g><path d="M12.460233608398436,36.23831846923828C9.793733608398437,37.81061846923828,6.4285736083984375,35.88821846923828,6.4285736083984375,32.79271846923828L6.4285736083984375,7.207198469238281C6.4285736083984375,4.111686469238281,9.793733608398437,2.189318469238281,12.460233608398436,3.7615724692382813L34.15637360839844,16.554318469238282C36.780773608398434,18.10181846923828,36.780773608398434,21.89811846923828,34.15637360839844,23.44561846923828L12.460233608398436,36.23831846923828Z" fill="#4285F4" fill-opacity="1"/></g><g><path d="M6.5895843505859375,6.040433000488282L20.491284350585936,20.00001300048828L27.716784350585936,12.74564300048828L12.514444350585936,3.7860980004882814Q11.814924350585937,3.3642170004882814,10.953744350585938,3.2369602004882814C10.523154350585937,3.173332100488281,9.877234350585937,3.2035312104882814,9.335244350585938,3.3525720004882813C8.784914350585938,3.503909000488281,8.357754350585937,3.7787020004882814,7.919064350585938,4.104017000488281Q7.041675350585938,4.754643000488281,6.5895843505859375,6.040433000488282Z" fill="#37A955" fill-opacity="1"/></g><g transform="matrix(0,1,-1,0,47.79412078857422,-7.794227600097656)"><path d="M27.79421653083594,27.317776594238282L41.740974194335934,41.213246594238285C44.48607419433594,40.291746594238276,44.72267419433594,37.67624659423828,44.564674194335936,36.854546594238286C44.48567419433594,36.44364659423828,44.44247419433594,36.23584659423828,44.319374194335936,35.90794659423828C44.198674194335936,35.586546594238285,43.93307419433594,35.16754659423828,43.691774194335935,34.754946594238284Q41.399874194335936,30.834946594238282,34.98595419433594,19.99994659423828L27.79421653083594,27.317776594238282Z" fill="#EA4335" fill-opacity="1"/></g><g><path d="M20.476181030273438,20.00011620361328L27.790691030273436,27.20939620361328C30.581381030273437,25.58149620361328,33.17918103027344,24.04639620361328,34.19078103027344,23.43939620361328C35.20228103027344,22.83249620361328,36.127181030273434,21.58972620361328,36.127181030273434,20.00013620361328C36.127181030273434,18.121516203613282,34.961781030273436,17.02666620361328,34.161881030273435,16.56082620361328C33.36188103027344,16.09498620361328,31.262481030273438,14.868716203613282,27.71676103027344,12.745796203613281L20.476181030273438,20.00011620361328Z" fill="#FBBC04" fill-opacity="1"/></g></g></g></svg>