<svg xmlns="http://www.w3.org/2000/svg" width="16" height="16" fill="none" >
    <path 
        d="M12.773 2.367a4.32 4.32 0 0 0-6.102 0l-4.66 4.657a.16.16 0 0 0-.047.114.16.16 0 0 0 .047.115l.658.659a.16.16 0 0 0 .227 0l4.661-4.657a3.043 3.043 0 0 1 2.166-.897c.818 0 1.588.318 2.164.897.579.578.897 1.348.897 2.164 0 .818-.318 1.586-.897 2.164l-4.75 4.748-.77.77c-.719.72-1.889.72-2.608 0a1.83 1.83 0 0 1-.54-1.304c0-.492.192-.955.54-1.303l4.712-4.71a.63.63 0 0 1 .445-.185h.002c.168 0 .323.066.44.184a.623.623 0 0 1 0 .886l-3.851 3.848a.16.16 0 0 0-.046.114.16.16 0 0 0 .046.115l.659.659a.16.16 0 0 0 .227 0l3.85-3.85c.355-.356.55-.827.55-1.329a1.87 1.87 0 0 0-.55-1.329 1.884 1.884 0 0 0-2.661 0l-.457.46L2.87 9.607a3.075 3.075 0 0 0-.907 2.191 3.094 3.094 0 0 0 3.098 3.093c.793 0 1.586-.302 2.19-.905l5.521-5.518a4.293 4.293 0 0 0 1.263-3.05 4.28 4.28 0 0 0-1.263-3.052Z">
    </path>
</svg>