<svg width="27" height="27" viewBox="0 0 27 27" xmlns="http://www.w3.org/2000/svg">
    <path d="M25.344 3.826 14.267.123a2.442 2.442 0 0 0-1.533 0L1.657 3.826A2.427 2.427 0 0 0 0 6.131v1.776a2.43 2.43 0 0 0 2.423 2.43h22.154A2.43 2.43 0 0 0 27 7.907V6.131a2.426 2.426 0 0 0-1.656-2.305m.85 19.536a3.805 3.805 0 0 0-3.612-2.61H4.42a3.805 3.805 0 0 0-3.613 2.612l-.144.437a2.444 2.444 0 0 0 .331 2.19A2.428 2.428 0 0 0 2.96 27H24.04a2.426 2.426 0 0 0 2.299-3.199l-.144-.439zm-1.963-4.446v-6.495h-7.615v6.248h5.966c.57 0 1.122.093 1.65.247m-13.847-.247V12.42H2.77v6.496a5.867 5.867 0 0 1 1.649-.247h5.966z" fill="#484CFD" fill-rule="evenodd"/>
</svg>
