<svg width="32" height="32" viewBox="0 0 32 32" xmlns="http://www.w3.org/2000/svg">
    <g fill-rule="nonzero" opacity=".35">
        <path d="M29.333 4.267H28.8v-1.6A2.668 2.668 0 0 0 26.133 0H5.867A2.668 2.668 0 0 0 3.2 2.667v1.6h-.533A2.668 2.668 0 0 0 0 6.933v5.334a2.668 2.668 0 0 0 2.667 2.666h1.6a1.07 1.07 0 0 0 1.066-1.066A1.07 1.07 0 0 0 4.267 12.8h-1.6a.528.528 0 0 1-.534-.533V6.933c0-.298.235-.533.534-.533h26.666c.299 0 .534.235.534.533v5.334a.528.528 0 0 1-.534.533h-1.6a1.07 1.07 0 0 0-1.066 1.067c0 .586.48 1.066 1.066 1.066h1.6A2.668 2.668 0 0 0 32 12.267V6.933a2.668 2.668 0 0 0-2.667-2.666zm-24-1.6c0-.299.235-.534.534-.534h20.266c.299 0 .534.235.534.534v1.6H5.333v-1.6z"/>
        <path d="M27.733 9.6a1.07 1.07 0 0 0-1.066-1.067H5.333A1.07 1.07 0 0 0 4.267 9.6c0 .587.48 1.067 1.066 1.067h21.334A1.07 1.07 0 0 0 27.733 9.6zM7.467 12.8v18.133c0 .587.48 1.067 1.066 1.067h14.934a1.07 1.07 0 0 0 1.066-1.067V12.8H7.467zm9.6 14.933A1.07 1.07 0 0 1 16 28.8a1.07 1.07 0 0 1-1.067-1.067v-1.066c0-.587.48-1.067 1.067-1.067s1.067.48 1.067 1.067v1.066zm4.266-6.933h-.714v1.6a1.07 1.07 0 0 1-1.067 1.067 1.07 1.07 0 0 1-1.067-1.067v-3.552a.715.715 0 0 0-1.429 0v1.781a2.854 2.854 0 0 1-2.848 2.848c-1.568 0-2.73-1.184-2.827-2.666h-.725a1.07 1.07 0 0 1-1.067-1.067c0-.587.48-1.067 1.067-1.067h.715v-1.6c0-.586.48-1.066 1.066-1.066.587 0 1.067.48 1.067 1.066v3.552a.715.715 0 0 0 1.43 0v-1.781A2.854 2.854 0 0 1 17.78 16c1.568 0 2.731 1.184 2.827 2.667h.725c.587 0 1.067.48 1.067 1.066a1.07 1.07 0 0 1-1.067 1.067z"/>
    </g>
</svg>
