<svg width="114" height="114" viewBox="0 0 114 114" xmlns="http://www.w3.org/2000/svg">
    <defs>
        <filter x="-23.1%" y="-23.1%" width="146.2%" height="146.2%" filterUnits="objectBoundingBox" id="jx017z6wka">
            <feGaussianBlur stdDeviation="6" in="SourceGraphic"/>
        </filter>
    </defs>
    <g fill="#FFF" fill-rule="nonzero">
        <path d="M39 0c21.54 0 39 17.46 39 39S60.54 78 39 78 0 60.54 0 39 17.46 0 39 0zm0 10c-16.016 0-29 12.984-29 29s12.984 29 29 29 29-12.984 29-29-12.984-29-29-29zm14.536 17.23a5 5 0 0 1 .486 7.054L38.372 52.25a5 5 0 0 1-7.588-.054l-7.6-8.983a5 5 0 1 1 7.633-6.46l3.839 4.537 11.825-13.574a5 5 0 0 1 7.055-.486z" filter="url(#jx017z6wka)" transform="translate(18 18)"/>
        <path d="M57 18c21.54 0 39 17.46 39 39S78.54 96 57 96 18 78.54 18 57s17.46-39 39-39zm0 10c-16.016 0-29 12.984-29 29s12.984 29 29 29 29-12.984 29-29-12.984-29-29-29zm14.536 17.23a5 5 0 0 1 .486 7.054L56.372 70.25a5 5 0 0 1-7.588-.054l-7.6-8.983a5 5 0 1 1 7.633-6.46l3.839 4.537 11.825-13.574a5 5 0 0 1 7.055-.486z"/>
    </g>
</svg>
