<svg width="113" height="113" viewBox="0 0 113 113" xmlns="http://www.w3.org/2000/svg">
    <defs>
        <filter x="-23.5%" y="-23.4%" width="146.9%" height="146.9%" filterUnits="objectBoundingBox" id="7m3bz2i1da">
            <feGaussianBlur stdDeviation="6" in="SourceGraphic"/>
        </filter>
    </defs>
    <g fill="#FFF" fill-rule="nonzero">
        <path d="M38.35 0C59.531 0 76.7 17.185 76.7 38.381c0 21.197-17.169 38.381-38.35 38.381S0 59.578 0 38.382C0 17.184 17.169 0 38.35 0zm0 9.833c-15.748 0-28.517 12.78-28.517 28.548 0 15.768 12.769 28.548 28.517 28.548s28.517-12.78 28.517-28.548c0-15.767-12.769-28.548-28.517-28.548zM23.418 23.681a4.917 4.917 0 0 1 6.953.003l7.979 7.986 7.979-7.986a4.917 4.917 0 0 1 6.956 6.95l-7.986 7.993 7.986 7.992a4.917 4.917 0 0 1 .166 6.776l-.17.177a4.917 4.917 0 0 1-6.952-.003l-7.979-7.986-7.979 7.986a4.917 4.917 0 1 1-6.956-6.95l7.985-7.992-7.985-7.993a4.917 4.917 0 0 1-.166-6.775z" filter="url(#7m3bz2i1da)" transform="translate(18.15 18.233)"/>
        <path d="M56.5 18.233c21.181 0 38.35 17.185 38.35 38.381S77.681 94.995 56.5 94.995 18.15 77.81 18.15 56.615c0-21.197 17.169-38.382 38.35-38.382zm0 9.833c-15.748 0-28.517 12.78-28.517 28.548 0 15.768 12.769 28.548 28.517 28.548s28.517-12.78 28.517-28.548c0-15.767-12.769-28.548-28.517-28.548zM41.568 41.914a4.917 4.917 0 0 1 6.953.003l7.979 7.986 7.979-7.986a4.917 4.917 0 0 1 6.956 6.95l-7.986 7.993 7.986 7.992a4.917 4.917 0 0 1 .166 6.776l-.17.177a4.917 4.917 0 0 1-6.952-.003L56.5 63.816l-7.979 7.986a4.917 4.917 0 1 1-6.956-6.95l7.985-7.992-7.985-7.993a4.917 4.917 0 0 1-.166-6.775z"/>
    </g>
</svg>
