<svg width="14" height="14" viewBox="0 0 14 14" xmlns="http://www.w3.org/2000/svg">
    <path d="M.293.293a1 1 0 0 1 1.414 0l.042.042.186.186.49.49.21.209.167.168.547.547.278.277.872.873.208.208.396.396.367.367.342.342.47.47.292.291.41.411.016.015.016-.015.41-.41.291-.292.471-.47.342-.342.367-.367.396-.396.208-.208.872-.873c.1-.098.192-.19.278-.277l.547-.547.168-.168.208-.209.49-.49.187-.186.042-.042a1 1 0 0 1 1.414 1.414l-.042.042-.186.186-.375.376-.324.323-.168.168-.547.547-.277.278-.873.872-.208.208-.396.396-.367.367-.342.342-.47.47-.291.292-.411.41L8.414 7l.11.11 1.02 1.02.333.334.547.547.402.401.434.435.47.47.51.51.552.552.598.598.317.317a1 1 0 0 1-1.414 1.414l-.317-.317-.598-.598-.553-.552-.51-.51-.47-.47-.434-.434-.401-.402-.547-.547-.334-.334-1.02-1.02L7 8.415l-.11.11-1.019 1.02-.334.333-.547.547-.401.402-.435.434-.47.47-.51.51-.552.552-.598.598-.317.317a1 1 0 0 1-1.414-1.414l1.467-1.468.51-.51.47-.47.434-.434.402-.401.547-.547.334-.334 1.02-1.02.108-.11-.015-.015-.41-.41-.292-.291-.47-.471-.342-.342-.367-.367-.396-.396-.208-.208-.873-.872c-.098-.1-.19-.192-.277-.278l-.547-.547-.168-.168-.209-.208-.49-.49-.186-.187-.042-.042a1 1 0 0 1 0-1.414z" fill="#0B042B" fill-rule="nonzero" fill-opacity=".205"/>
</svg>
