<svg width="24" height="25" viewBox="0 0 24 25" xmlns="http://www.w3.org/2000/svg" xmlns:xlink="http://www.w3.org/1999/xlink">
    <defs>
        <path id="m95oylbwta" d="M0 0h21.461v25H0z"/>
    </defs>
    <g fill="none" fill-rule="evenodd">
        <path d="M4.36 8.071H1.121C.502 8.071 0 7.559 0 6.927v-.398c0-.632.502-1.145 1.122-1.145h3.237c.62 0 1.122.513 1.122 1.145v.398c0 .632-.502 1.144-1.122 1.144M4.36 19.615H1.121c-.62 0-1.122-.512-1.122-1.144v-.398c0-.632.502-1.144 1.122-1.144h3.237c.62 0 1.122.512 1.122 1.144v.398c0 .632-.502 1.144-1.122 1.144" fill="#484CFD"/>
        <g transform="translate(2.539)">
            <mask id="1l9hpbyixb" fill="#fff">
                <use xlink:href="#m95oylbwta"/>
            </mask>
            <path d="M14.552 18.273H6.91c-.816 0-1.334-1.05-.949-1.916.905-2.057 2.7-3.461 4.77-3.461 2.072 0 3.864 1.404 4.772 3.46.382.868-.132 1.917-.951 1.917M10.73 6.727c1.56 0 2.826 1.291 2.826 2.884 0 1.592-1.265 2.88-2.826 2.88-1.558 0-2.824-1.288-2.824-2.88 0-1.593 1.266-2.884 2.824-2.884M17.545 0H3.92C1.755 0 0 1.79 0 3.998v.443h1.82c1.13 0 2.047.936 2.047 2.089v.395c0 1.153-.917 2.089-2.047 2.089H0v6.972h1.82c1.13 0 2.047.936 2.047 2.089v.395c0 1.153-.917 2.089-2.047 2.089H0v.443C0 23.21 1.755 25 3.92 25h13.625c2.161 0 3.916-1.79 3.916-3.998V3.998C21.461 1.79 19.706 0 17.545 0" fill="#484CFD" mask="url(#1l9hpbyixb)"/>
        </g>
    </g>
</svg>
