<svg xmlns="http://www.w3.org/2000/svg" width="17" height="16">
    <path 
        d="M5.786 2.141h-.143a.143.143 0 0 0 .143-.143v.143h5.428v-.143c0 .079.064.143.143.143h-.143v1.286H12.5V1.998c0-.63-.512-1.143-1.143-1.143H5.643c-.63 0-1.143.513-1.143 1.143v1.429h1.286V2.14Zm9 1.286H2.214a.57.57 0 0 0-.571.571v.572c0 .078.064.143.143.143h1.078l.441 9.339c.029.609.532 1.09 1.141 1.09h8.107c.611 0 1.113-.48 1.142-1.09l.44-9.34h1.08a.143.143 0 0 0 .142-.142v-.572a.57.57 0 0 0-.571-.571Zm-2.37 10.428H4.584l-.432-9.142h8.696l-.432 9.142Z">
    </path>
</svg>