<svg width="25" height="17" viewBox="0 0 25 17" xmlns="http://www.w3.org/2000/svg">
    <g fill="#484CFD" fill-rule="nonzero">
        <path d="M11.449 8.865a1.638 1.638 0 0 0 2.115 0L22.128 1.5 23.192.453A3.583 3.583 0 0 0 21.487 0H3.526C2.897 0 2.333.176 1.82.453l1.102 1.083 8.526 7.317v.012z"/>
        <path d="m24.538 1.8-1.102 1.084-8.615 7.404a3.57 3.57 0 0 1-4.642 0L1.615 2.921.462 1.788A3.424 3.424 0 0 0 0 3.463v10.074C0 15.451 1.577 17 3.526 17h17.948C23.424 17 25 15.451 25 13.537V3.476c0-.617-.18-1.172-.462-1.675z"/>
    </g>
</svg>
