<svg width="31" height="28" viewBox="0 0 31 28" xmlns="http://www.w3.org/2000/svg">
    <path d="M7.5 0c1.656 0 3.043 1.192 3.407 2.794l18.474.001c.552 0 1 .464 1 1.037s-.448 1.037-1 1.037l-18.591.002c-.489 1.393-1.777 2.388-3.29 2.388-1.513 0-2.801-.995-3.29-2.388l-2.83-.002c-.551 0-1-.464-1-1.037s.449-1.037 1-1.037l2.713-.001C4.457 1.192 5.844 0 7.5 0zm0 2.074c-.828 0-1.5.697-1.5 1.556 0 .859.672 1.555 1.5 1.555S9 4.49 9 3.63c0-.86-.672-1.556-1.5-1.556zm17 8.296c1.656 0 3.043 1.193 3.407 2.795h1.474c.552 0 1 .465 1 1.038 0 .572-.448 1.037-1 1.037h-1.59c-.49 1.394-1.778 2.39-3.291 2.39s-2.801-.996-3.29-2.39H1.38c-.551 0-1-.465-1-1.037 0-.573.449-1.037 1-1.037h19.713c.364-1.603 1.751-2.796 3.407-2.796zm0 2.074c-.828 0-1.5.697-1.5 1.556 0 .86.672 1.556 1.5 1.556S26 14.859 26 14c0-.86-.672-1.556-1.5-1.556zm-9 8.297c1.656 0 3.043 1.192 3.407 2.794H29.38c.552 0 1 .465 1 1.038s-.448 1.037-1 1.037l-10.59.001C18.3 27.005 17.012 28 15.5 28s-2.801-.995-3.29-2.389L1.38 25.61c-.551 0-1-.464-1-1.037s.449-1.037 1-1.037l10.713-.001c.364-1.602 1.751-2.794 3.407-2.794zm0 2.074c-.828 0-1.5.696-1.5 1.555 0 .86.672 1.556 1.5 1.556s1.5-.697 1.5-1.556c0-.859-.672-1.555-1.5-1.555z" fill="#0B042B" fill-rule="nonzero" fill-opacity=".399"/>
</svg>
