<svg width="26" height="23" viewBox="0 0 26 23" xmlns="http://www.w3.org/2000/svg">
    <g fill-rule="nonzero" fill="none">
        <path d="M11.77 9.378H9.31L5.72 3.184A2.117 2.117 0 0 1 6.5.285a2.13 2.13 0 0 1 2.91.777L13 7.256l-1.23 2.122z" fill="#FCBC05"/>
        <path d="M19.5 22.715a2.136 2.136 0 0 1-2.91-.777L13 15.745l-3.59 6.193a2.135 2.135 0 0 1-2.91.777 2.12 2.12 0 0 1-.78-2.899l3.59-6.194h7.38l3.59 6.194a2.119 2.119 0 0 1-.78 2.9z" fill="#E94335"/>
        <path d="M26 11.5a2.127 2.127 0 0 1-2.13 2.122h-7.18L15.46 11.5l-1.23-2.122L13 7.256l3.59-6.194A2.135 2.135 0 0 1 19.5.285a2.118 2.118 0 0 1 .78 2.898l-3.59 6.195h7.18c1.177 0 2.13.95 2.13 2.122z" fill="#1973E8"/>
        <path d="M11.77 9.378 10.54 11.5l-1.23 2.123H2.13C.954 13.623 0 12.673 0 11.5a2.13 2.13 0 0 1 2.13-2.122h9.64z" fill="#34A853"/>
        <path fill="#174FA7" d="M16.69 13.622H9.31l1.23-2.122 1.23-2.122L13 7.256l1.23 2.122 1.23 2.122z"/>
    </g>
</svg>
