<svg xmlns="http://www.w3.org/2000/svg" xmlns:xlink="http://www.w3.org/1999/xlink" fill="none" version="1.1" width="40" height="40" viewBox="0 0 40 40"><defs><clipPath id="master_svg0_23488_69132/1385_86285"><rect x="0" y="0" width="40" height="40" rx="0"/></clipPath></defs><g clip-path="url(#master_svg0_23488_69132/1385_86285)"><g><path d="M31.1833724609375,21.4585921875C30.9166724609375,17.8419921875,33.2833724609375,15.5585921875,35.5166724609375,13.9585921875C33.416672460937505,12.0585921875,31.5916724609375,10.2169921875,27.7250724609375,10.0253121875C24.6083724609375,9.9003121875,23.1916724609375,11.6919921875,20.2750724609375,11.7335921875C17.5666724609375,11.8002921875,17.7750724609375,9.7669921875,12.1500224609375,10.3336321875C7.2833424609375,10.8336321875,3.0167054609375,15.4335921875,3.3333461609375,21.8419921875C3.6917054609375,28.7585921875,8.841702460937501,38.3335921875,13.6416724609375,38.3335921875C17.0250724609375,38.2669921875,17.8083724609375,36.7502921875,20.6166724609375,36.7502921875C24.0666724609375,36.7502921875,24.8833724609375,38.6502921875,27.5916724609375,38.2752921875C32.2666724609375,37.6335921875,36.6666724609375,30.7252921875,36.6666724609375,28.5085921875C34.0916724609375,27.2335921875,31.5166724609375,25.0752921875,31.1833724609375,21.4585921875ZM27.2583724609375,1.6669921875C20.8333724609375,2.5003121875,18.9916724609375,8.0086321875,19.3333724609375,10.5503121875C24.2750724609375,10.8336321875,28.0000724609375,5.9169921875,27.2583724609375,1.6669921875Z" fill="#3D3D3D" fill-opacity="1"/></g></g></svg>