<svg xmlns="http://www.w3.org/2000/svg" width="202" height="30" viewBox="0 0 202 30">
    <g fill-rule="nonzero">
        <path
            d="m25.16 0-1.298 9.035L35.23.133l3.874 5.144-12.387 9.699 9.63 9.731-5.353 5.145-8.81-8.903-1.3 9.051h-6.943l1.302-9.051-11.37 8.903L0 24.707l12.386-9.699-9.63-9.731L8.11.133l8.81 8.902L18.219 0h6.942zm1.507 14.923c-3.528-3.565-9.62-3.565-14.172 0l-.109.085.052.053c3.528 3.565 9.62 3.565 14.172 0l.108-.085zM51.75 23.764l1.897-13.654h-5.335l.51-3.67H63.96l-.51 3.67h-5.336l-1.896 13.654h-4.467zm10.541 0 1.822-13.117h3.524l-.246 1.774c.17-.297.435-.61.794-.94.36-.33.78-.607 1.263-.828a3.658 3.658 0 0 1 1.543-.332c.268 0 .483.016.647.05.163.032.31.064.442.094l-.46 3.308c-.075-.055-.257-.114-.548-.179a4.71 4.71 0 0 0-1.014-.097c-.582 0-1.075.116-1.48.349a2.573 2.573 0 0 0-.952.934c-.231.39-.38.833-.45 1.328l-1.063 7.656h-3.822zm15.591.326c-1.282 0-2.404-.245-3.366-.736-.962-.49-1.673-1.238-2.133-2.242-.46-1.004-.585-2.265-.374-3.783l.069-.495c.201-1.452.656-2.654 1.363-3.607a6.818 6.818 0 0 1 2.669-2.168 8.136 8.136 0 0 1 3.436-.738c2.173 0 3.733.558 4.68 1.675.946 1.116 1.273 2.725.981 4.826l-.192 1.386H75.79c-.058.66.018 1.204.23 1.633.213.43.521.739.926.929.405.19.857.284 1.357.284.725 0 1.315-.113 1.771-.338.456-.226.777-.525.961-.9h3.507c-.462 1.422-1.262 2.49-2.401 3.204-1.139.713-2.559 1.07-4.26 1.07zm1.367-10.733c-.469 0-.92.078-1.356.233-.435.155-.804.4-1.106.736-.301.336-.51.796-.624 1.382h5.472c.086-.619.028-1.1-.174-1.442a1.584 1.584 0 0 0-.883-.711 4.11 4.11 0 0 0-1.33-.198zM90.284 24.09c-.94 0-1.718-.181-2.332-.544a3.03 3.03 0 0 1-1.31-1.504c-.258-.64-.334-1.344-.227-2.114.18-1.298.717-2.293 1.608-2.984.892-.692 2.151-1.038 3.778-1.038h3.735l.077-.557c.11-.797-.002-1.345-.338-1.643-.337-.299-.839-.448-1.506-.448-.623 0-1.097.098-1.422.295-.325.196-.532.502-.62.918h-3.81a4.611 4.611 0 0 1 1.048-2.119c.54-.628 1.26-1.124 2.16-1.487.902-.363 1.96-.544 3.176-.544 1.17 0 2.168.175 2.994.526.827.35 1.432.907 1.816 1.668.384.762.486 1.79.306 3.082l-.67 4.826c-.096.693-.163 1.3-.201 1.82-.038.519-.058 1.026-.06 1.521H94.84c.012-.286.02-.537.024-.752.004-.216.027-.478.07-.786-.46.536-1.066.98-1.817 1.334-.75.354-1.696.53-2.834.53zm1.61-2.69c.551 0 1.059-.1 1.522-.3a2.83 2.83 0 0 0 1.152-.904c.304-.401.492-.862.564-1.382l.077-.557h-3.003c-.554 0-.99.15-1.309.448-.319.298-.505.644-.56 1.037-.068.49.015.889.248 1.197.233.308.669.462 1.309.462zm14.381 2.69c-1.072 0-1.978-.112-2.716-.336-.738-.224-1.328-.528-1.77-.912a3.036 3.036 0 0 1-.92-1.365 4.091 4.091 0 0 1-.18-1.66h3.797c.06.363.235.677.525.944.29.267.847.4 1.671.4.85 0 1.475-.115 1.876-.344.401-.23.629-.536.682-.918a.639.639 0 0 0-.163-.522c-.136-.158-.406-.305-.812-.44-.406-.137-.997-.266-1.774-.387a15.366 15.366 0 0 1-1.989-.453c-.616-.187-1.142-.433-1.577-.739a2.71 2.71 0 0 1-.956-1.17c-.203-.474-.253-1.08-.151-1.816.106-.762.43-1.448.975-2.059.543-.61 1.279-1.095 2.205-1.454.927-.359 1.99-.538 3.19-.538 1.381 0 2.445.21 3.192.63.747.422 1.265.959 1.555 1.612.29.653.418 1.33.384 2.031h-3.839c-.042-.412-.21-.74-.507-.981-.295-.242-.693-.363-1.192-.363-.756 0-1.296.115-1.62.344-.324.23-.508.505-.553.827-.047.336.151.599.594.79.442.191 1.159.35 2.15.477a12.84 12.84 0 0 1 1.984.427c.609.185 1.135.44 1.58.765.444.324.774.728.99 1.212.215.484.274 1.076.177 1.774a4.136 4.136 0 0 1-1.018 2.189c-.565.647-1.33 1.148-2.293 1.503-.963.355-2.129.532-3.497.532zm12.728 0c-1.516 0-2.61-.43-3.282-1.289-.672-.86-.887-2.165-.643-3.917l1.144-8.237h3.822l-1.064 7.656c-.118.85-.03 1.497.264 1.943.294.445.836.668 1.628.668.573 0 1.06-.116 1.46-.347.4-.23.719-.542.955-.934.237-.392.39-.835.458-1.33l1.063-7.656h3.814L126.8 23.764h-3.516l.247-1.774c-.42.58-1.012 1.076-1.776 1.486-.764.41-1.682.614-2.752.614zm10.288-.326 1.822-13.117h3.524l-.246 1.774c.17-.297.435-.61.794-.94.36-.33.78-.607 1.263-.828a3.658 3.658 0 0 1 1.543-.332c.268 0 .483.016.647.05.164.032.31.064.442.094l-.46 3.308c-.075-.055-.257-.114-.548-.179a4.71 4.71 0 0 0-1.014-.097c-.582 0-1.075.116-1.48.349a2.573 2.573 0 0 0-.952.934c-.231.39-.38.833-.45 1.328l-1.063 7.656h-3.822zm15.591.326c-1.282 0-2.404-.245-3.366-.736-.962-.49-1.673-1.238-2.133-2.242-.46-1.004-.585-2.265-.374-3.783l.069-.495c.201-1.452.656-2.654 1.363-3.607a6.818 6.818 0 0 1 2.669-2.168 8.136 8.136 0 0 1 3.436-.738c2.173 0 3.733.558 4.68 1.675.946 1.116 1.273 2.725.981 4.826l-.192 1.386h-9.224c-.058.66.018 1.204.23 1.633.213.43.521.739.926.929.405.19.858.284 1.357.284.725 0 1.315-.113 1.772-.338.456-.226.776-.525.96-.9h3.507c-.462 1.422-1.262 2.49-2.401 3.204-1.139.713-2.559 1.07-4.26 1.07zm1.367-10.733c-.469 0-.92.078-1.356.233-.435.155-.804.4-1.105.736-.302.336-.51.796-.625 1.382h5.472c.086-.619.028-1.1-.174-1.442a1.584 1.584 0 0 0-.883-.711 4.11 4.11 0 0 0-1.33-.198zm9.884 10.407L158.54 6.44h8.313c2.03 0 3.454.4 4.272 1.199.818.798 1.124 1.942.918 3.43-.124.89-.463 1.654-1.017 2.289a4.704 4.704 0 0 1-2.06 1.374c.988.23 1.73.697 2.227 1.398.497.701.667 1.613.511 2.735-.14 1.003-.48 1.874-1.02 2.613-.541.738-1.302 1.304-2.283 1.697-.982.394-2.214.59-3.698.59h-8.57zm4.94-3.407h3.115c1.07 0 1.834-.163 2.291-.489.458-.326.734-.827.828-1.503.093-.671-.047-1.173-.42-1.506-.373-.333-1.112-.5-2.218-.5h-3.04l-.555 3.998zm.974-7.008h2.75c.96 0 1.631-.153 2.014-.458.383-.305.614-.741.693-1.308.08-.583-.027-1.018-.323-1.305-.297-.288-.915-.431-1.856-.431h-2.791l-.487 3.502zm17.234 10.741c-1.219 0-2.306-.242-3.26-.726-.954-.484-1.66-1.23-2.119-2.238-.458-1.008-.582-2.273-.37-3.797l.069-.495c.197-1.424.662-2.617 1.394-3.578a7.086 7.086 0 0 1 2.734-2.188 8.247 8.247 0 0 1 3.464-.747c1.241 0 2.332.249 3.274.747a4.758 4.758 0 0 1 2.11 2.188c.464.961.598 2.154.4 3.578l-.069.495c-.208 1.502-.681 2.752-1.418 3.752-.738 1-1.646 1.751-2.727 2.254a8.146 8.146 0 0 1-3.482.755zm.441-3.176c.593 0 1.117-.144 1.572-.431.455-.288.83-.703 1.124-1.246.295-.543.493-1.179.594-1.908l.069-.495c.091-.657.062-1.236-.088-1.736s-.412-.893-.788-1.176c-.376-.283-.86-.425-1.453-.425-.6 0-1.126.142-1.577.425-.45.283-.82.675-1.108 1.176-.289.5-.479 1.08-.57 1.736l-.069.495c-.105.756-.085 1.403.06 1.941.144.538.402.946.774 1.225.373.28.86.419 1.46.419zm6.815 2.85 5.125-6.826-3.055-6.291h4.21l2.014 3.997 3.04-3.997H202l-4.785 6.163 3.211 6.954h-4.235l-2.117-4.682-3.4 4.682h-4.137z" />
    </g>
</svg>