<svg width="29" height="30" viewBox="0 0 29 30" xmlns="http://www.w3.org/2000/svg">
    <g fill="none" fill-rule="evenodd">
        <path d="M15.621 26.057a.768.768 0 0 1 .76.937l-.009.034-.008.033A3.987 3.987 0 0 1 12.501 30a3.987 3.987 0 0 1-3.88-3.003.773.773 0 0 1 .759-.94zM12.5 0A2.5 2.5 0 0 1 15 2.5v.725c4.93 1.085 8.589 5.41 8.438 11.842v4.274c0 1.462 1.562 2.248 1.562 3.619 0 .96-.78 1.725-1.74 1.725H1.74A1.733 1.733 0 0 1 0 22.96c.001-1.552 1.563-2.197 1.563-3.619v-4.274c0-6.43 3.545-10.752 8.437-11.84V2.5A2.5 2.5 0 0 1 12.5 0z" fill-opacity=".399" fill="#0B042B" fill-rule="nonzero"/>
        <circle stroke="#F7F7F8" stroke-width="2" fill="#FB0772" cx="22" cy="8" r="6"/>
    </g>
</svg>
