<svg width="20" height="25" viewBox="0 0 20 25" xmlns="http://www.w3.org/2000/svg">
    <path d="M17.42 9.128V7.372C17.42 3.308 14.09 0 10 0S2.58 3.308 2.58 7.372v1.756C1.098 9.551 0 10.898 0 12.5v8.974C0 23.424 1.587 25 3.548 25h12.904C18.412 25 20 23.423 20 21.474V12.5c0-1.603-1.097-2.949-2.58-3.372zM10 4.488c1.6 0 2.903 1.294 2.903 2.884v1.602H7.097V7.372c0-1.59 1.303-2.885 2.903-2.885zm.968 13.871v1.833a.972.972 0 0 1-.968.962.972.972 0 0 1-.968-.962V18.36a2.234 2.234 0 0 1-1.29-2.013c0-1.23 1.02-2.243 2.258-2.243 1.239 0 2.258 1.012 2.258 2.243a2.22 2.22 0 0 1-1.29 2.013z" fill="#484CFD" fill-rule="nonzero"/>
</svg>
