<svg xmlns="http://www.w3.org/2000/svg" xmlns:xlink="http://www.w3.org/1999/xlink" version="1.1" width="24" height="24"
  viewBox="0 0 24 24">
  <defs>
    <clipPath id="master_svg0_24069_64729">
      <rect x="0" y="0" width="24" height="24" rx="0" />
    </clipPath>
  </defs>
  <g clip-path="url(#master_svg0_24069_64729)">
    <g>
      <path
        d="M11.9901,15.8858C9.76687,15.8858,7.96459,14.13972,7.96459,11.98579C7.96459,9.831859999999999,9.76687,8.08575,11.9901,8.08575C14.2133,8.08575,16.0156,9.831859999999999,16.0156,11.98579C16.0101,14.13753,14.211,15.8805,11.9901,15.8858ZM22.4802,11.9954C22.3632,11.5144,22.2005,11.04491,21.9943,10.59292C21.6314,9.72027,21.1478,8.89945,20.5567,8.152989999999999C19.695,7.095689999999999,18.6054,6.2334700000000005,17.364,5.6266099999999994C15.6886,4.848611,13.8476,4.4635957,11.9901,4.50270833C10.1384,4.469251,8.30448,4.857507,6.63598,5.63622C5.38945,6.23952,4.29329,7.0983,3.4235100000000003,8.152989999999999C2.83282,8.899709999999999,2.349202,9.720469999999999,1.985836,10.59292C1.779055,11.04469,1.6164,11.514240000000001,1.5,11.9954C1.616309,12.47969,1.778958,12.95243,1.985836,13.40748C2.349422,14.27982,2.8330200000000003,15.1006,3.4235100000000003,15.8474C4.29192,16.903399999999998,5.38841,17.7624,6.63598,18.3642C8.30532,19.1405,10.13865,19.5286,11.9901,19.497700000000002C13.8484,19.5338,15.6894,19.1455,17.364,18.3642C18.6107,17.7611,19.7069,16.9023,20.5765,15.8474C21.1684,15.098,21.652,14.27388,22.0142,13.39788C22.2204,12.94588,22.383,12.47639,22.5,11.9954L22.4802,11.9954ZM11.9901,9.68995C10.43195,9.689969999999999,9.29788,11.12189,9.70118,12.58002C10.10447,14.03815,11.8256,14.7288,13.175,13.97403C14.5243,13.21923,14.7675,11.4298,13.6657,10.36237C13.2226,9.930019999999999,12.619,9.68782,11.9901,9.68995Z" />
    </g>
  </g>
</svg>