<svg width="20" height="25" viewBox="0 0 20 25" xmlns="http://www.w3.org/2000/svg">
    <path d="M10 0c4.09 0 7.42 3.308 7.42 7.372v1.756c1.483.423 2.58 1.77 2.58 3.372v8.974C20 23.424 18.413 25 16.452 25H3.548C1.588 25 0 23.423 0 21.474V12.5c0-1.603 1.097-2.949 2.58-3.372V7.372C2.58 3.308 5.91 0 10 0zm1.306 12H8.694l.278 3.171-2.555-1.942L5 15.77 7.972 17 5 18.229l1.417 2.542 2.555-1.942L8.694 22h2.612l-.278-3.171 2.555 1.942L15 18.23 12.028 17 15 15.771l-1.389-2.542-2.583 1.942.278-3.171zM10 4.487c-1.6 0-2.903 1.295-2.903 2.885v1.602h5.806V7.372c0-1.59-1.303-2.885-2.903-2.885z" fill="#484CFD" fill-rule="nonzero"/>
</svg>
