<svg xmlns="http://www.w3.org/2000/svg" xmlns:xlink="http://www.w3.org/1999/xlink" version="1.1" width="24" height="24"
  viewBox="0 0 24 24">
  <defs>
    <clipPath id="master_svg0_24069_64620">
      <rect x="0" y="0" width="24" height="24" rx="0" />
    </clipPath>
  </defs>
  <g clip-path="url(#master_svg0_24069_64620)">
    <g>
      <path
        d="M17.2188,18.43070716094971L19.2734,20.485307160949706Q19.3331,20.54500716094971,19.4033,20.591907160949706Q19.4735,20.638807160949707,19.5515,20.671107160949706Q19.6295,20.703407160949705,19.7123,20.719907160949706Q19.7951,20.736307160949707,19.8795,20.736307160949707Q19.9639,20.736307160949707,20.0467,20.719907160949706Q20.1295,20.703407160949705,20.2075,20.671107160949706Q20.2855,20.638807160949707,20.3557,20.591907160949706Q20.4259,20.54500716094971,20.4856,20.485307160949706Q20.5453,20.425607160949706,20.5922,20.355407160949706Q20.6391,20.285207160949707,20.6714,20.207207160949707Q20.7037,20.129207160949708,20.7202,20.046407160949705Q20.7366,19.963607160949707,20.7366,19.879207160949708Q20.7366,19.794807160949706,20.7202,19.712007160949707Q20.7037,19.629207160949708,20.6714,19.55120716094971Q20.6391,19.473207160949705,20.5922,19.403007160949706Q20.5453,19.332807160949706,20.4856,19.273107160949706L18.7544,17.541907160949705C19.4343,17.05870716094971,20.0473,16.489307160949707,20.5765,15.847407160949707C21.1684,15.097907160949706,21.652,14.273807160949707,22.0142,13.397807160949707C22.2204,12.945857160949707,22.383,12.476367160949707,22.5,11.995367160949707L22.4802,11.995367160949707C22.3632,11.514377160949707,22.2005,11.044887160949706,21.9943,10.592897160949708C21.6314,9.720237160949708,21.1478,8.899417160949707,20.5567,8.152967160949707C19.695,7.0956671609497075,18.6054,6.233447160949707,17.364,5.626587160949708C15.6886,4.848587160949707,13.8476,4.463567160949707,11.9901,4.502687160949707C10.19219,4.4701971609497075,8.41104,4.8352771609497065,6.7818,5.569317160949707L4.7272099999999995,3.514732160949707Q4.66752,3.455037160949707,4.59732,3.408135160949707Q4.52713,3.361233660949707,4.44913,3.328927060949707Q4.3711400000000005,3.296620460949707,4.28834,3.280150760949707Q4.20554,3.263680956849707,4.1211199999999995,3.263680956749707Q4.0367,3.263680956849707,3.9539,3.280150760949707Q3.8711,3.296620460949707,3.7931,3.328927060949707Q3.71511,3.361233660949707,3.64492,3.408135160949707Q3.57472,3.455037160949707,3.51503,3.514732160949707Q3.45533,3.574427160949707,3.40843,3.644621160949707Q3.36153,3.714814160949707,3.3292200000000003,3.792809160949707Q3.29691,3.870804160949707,3.28045,3.953603160949707Q3.26398,4.036402160949707,3.26398,4.120824160949707Q3.26398,4.205245160949707,3.28045,4.2880471609497075Q3.29691,4.370847160949707,3.3292200000000003,4.448837160949707Q3.36153,4.526837160949707,3.40843,4.5970271609497075Q3.45533,4.667217160949707,3.51503,4.726917160949707L5.2463,6.458197160949707C4.56626,6.9415771609497074,3.95295,7.510977160949707,3.4235100000000003,8.152967160949707C2.83282,8.899687160949707,2.349202,9.720447160949707,1.985836,10.592897160949708C1.779055,11.044667160949707,1.6164,11.514207160949708,1.5,11.995367160949707C1.616309,12.479667160949708,1.778958,12.952407160949708,1.985836,13.407407160949708C2.349422,14.279807160949707,2.8330200000000003,15.100507160949707,3.4235100000000003,15.847407160949707C4.29192,16.903407160949705,5.38841,17.762407160949707,6.63598,18.364107160949708C8.30532,19.140507160949706,10.13865,19.528607160949708,11.9901,19.49770716094971C13.7949,19.532707160949705,15.5833,19.167507160949707,17.2188,18.43070716094971ZM15.3461,14.133607160949706C15.7674,13.517807160949706,16.0136,12.779577160949707,16.0156,11.985767160949708C16.0156,9.831827160949707,14.2133,8.085727160949707,11.9901,8.085727160949707C11.21535,8.085727160949707,10.49173,8.297767160949707,9.87768,8.665207160949707L11.0777,9.865217160949708C11.35645,9.752657160949706,11.664,9.689937160949707,11.9901,9.689927160949708C12.619,9.687787160949707,13.2226,9.929997160949707,13.6657,10.362347160949707C14.3992,11.072977160949707,14.5366,12.103607160949707,14.1484,12.935917160949707L15.3461,14.133607160949706ZM12.8959,14.107807160949706L14.0948,15.306707160949706C13.4825,15.672307160949707,12.7618,15.884007160949707,11.9901,15.885807160949707C9.76687,15.885807160949707,7.96459,14.139707160949706,7.96459,11.985767160949708C7.96459,11.193027160949708,8.20872,10.455527160949707,8.62811,9.839997160949707L9.82949,11.041377160949708C9.61339,11.502967160949707,9.55174,12.039687160949708,9.70118,12.579997160949707C10.07712,13.939307160949706,11.5983,14.631607160949708,12.8959,14.107807160949706Z"
        fill-rule="evenodd" />
    </g>
  </g>
</svg>