<svg width="25" height="25" viewBox="0 0 25 25" xmlns="http://www.w3.org/2000/svg">
    <g fill="#484CFD" fill-rule="nonzero">
        <path d="M8.056 25H3.419A3.424 3.424 0 0 1 0 21.58v-4.636a1.11 1.11 0 1 1 2.222 0v4.637c.001.66.536 1.195 1.197 1.197h4.636a1.11 1.11 0 1 1 0 2.222zM21.58 25h-4.636a1.11 1.11 0 1 1 0-2.222h4.637a1.198 1.198 0 0 0 1.197-1.197v-4.637a1.11 1.11 0 1 1 2.222 0v4.637A3.424 3.424 0 0 1 21.58 25zM23.889 9.167a1.11 1.11 0 0 1-1.111-1.111V3.419a1.198 1.198 0 0 0-1.197-1.197h-4.637a1.11 1.11 0 1 1 0-2.222h4.637A3.424 3.424 0 0 1 25 3.42v4.636a1.11 1.11 0 0 1-1.111 1.11zM1.111 9.167A1.11 1.11 0 0 1 0 8.056V3.419A3.424 3.424 0 0 1 3.42 0h4.636a1.11 1.11 0 1 1 0 2.222H3.419A1.198 1.198 0 0 0 2.222 3.42v4.636a1.11 1.11 0 0 1-1.11 1.112z"/>
        <path d="M11.389 11.389H4.722V4.722h6.667v6.667zM6.944 9.167h2.223V6.944H6.944v2.223zM20.278 11.389H13.61V4.722h6.667v6.667zm-4.445-2.222h2.222V6.944h-2.222v2.223zM11.389 20.278H4.722V13.61h6.667v6.667zm-4.445-2.223h2.223v-2.222H6.944v2.222zM20.278 20.278H13.61V13.61h6.667v6.667zm-4.445-2.223h2.222v-2.222h-2.222v2.222z"/>
    </g>
</svg>
