<svg width="32" height="33" viewBox="0 0 32 33" xmlns="http://www.w3.org/2000/svg">
    <g fill-rule="nonzero" opacity=".35">
        <path d="M29.45 21.618a2.55 2.55 0 0 0-1.526.512l-3.254 2.433a4.688 4.688 0 0 0-4.343-2.87h-2.092l-1.472-1.612a4.954 4.954 0 0 0-3.65-1.61H11.76c-1.324 0-2.561.511-3.5 1.45l-.363.363h-.48a2.668 2.668 0 0 0-2.614-2.134H1.067A1.07 1.07 0 0 0 0 19.217v10.67c0 .587.48 1.067 1.067 1.067h3.735c1.259 0 2.304-.875 2.582-2.038h.63l3.104 2.006a6.883 6.883 0 0 0 3.746 1.1h7.778c1.803 0 3.51-.684 4.802-1.943l3.766-3.638c.491-.48.78-1.153.78-1.835v-.427a2.55 2.55 0 0 0-2.55-2.55l.01-.011zM5.324 28.276a.528.528 0 0 1-.533.534H2.123v-8.537h2.668c.299 0 .533.235.533.534v7.47zm24.542-3.67a.387.387 0 0 1-.128.298l-3.767 3.639a4.773 4.773 0 0 1-3.318 1.344h-7.779a4.783 4.783 0 0 1-2.593-.768L8.91 26.942a1.102 1.102 0 0 0-.577-.17H7.47v-4.365h.864c.289 0 .555-.117.758-.309l.683-.683a2.784 2.784 0 0 1 1.985-.821h1.355c.79 0 1.547.33 2.08.917l1.793 1.963c.203.225.49.353.79.353h2.56c.993 0 1.878.554 2.316 1.408h-4.097a1.07 1.07 0 0 0-1.068 1.067c0 .587.48 1.067 1.068 1.067h5.58c.235 0 .459-.075.64-.213l4.44-3.319c.255-.192.671.01.671.342v.427h-.021zM23.464 17.072c4.705 0 8.536-3.83 8.536-8.536C32 3.831 28.17 0 23.464 0c-4.706 0-8.536 3.83-8.536 8.536 0 4.706 3.83 8.536 8.536 8.536zm.885-7.469h-1.781a2.855 2.855 0 0 1-2.85-2.849c0-1.568 1.185-2.731 2.668-2.827V3.2c0-.587.48-1.067 1.067-1.067s1.067.48 1.067 1.067v.715h1.6c.588 0 1.068.48 1.068 1.067A1.07 1.07 0 0 1 26.12 6.05h-3.553a.715.715 0 0 0 0 1.43h1.781a2.855 2.855 0 0 1 2.85 2.849c0 1.568-1.185 2.731-2.668 2.827v.726a1.07 1.07 0 0 1-1.067 1.067 1.07 1.07 0 0 1-1.067-1.067v-.715h-1.6a1.07 1.07 0 0 1-1.068-1.067c0-.587.48-1.067 1.067-1.067h3.553a.715.715 0 0 0 0-1.43z"/>
    </g>
</svg>
