<svg width="24" height="24" viewBox="0 0 24 24" xmlns="http://www.w3.org/2000/svg">
    <path d="M1.907 2.356a1 1 0 0 0-.276.523L.461 9.1a1 1 0 0 0 1.167 1.168l6.222-1.17a1 1 0 0 0 .522-1.69L6.965 5.998c3.338-2.85 8.344-2.71 11.481.427 3.3 3.298 3.283 8.664-.037 11.983-3.32 3.32-8.685 3.336-11.983.037a1.495 1.495 0 0 0-2.115.007 1.495 1.495 0 0 0-.007 2.115c4.463 4.463 11.722 4.44 16.213-.05 4.491-4.492 4.514-11.75.05-16.214C16.267.002 9.368-.132 4.853 3.886l-1.53-1.53a1 1 0 0 0-1.415 0z" fill="#0B042B" fill-rule="nonzero" fill-opacity=".399"/>
</svg>
