<svg xmlns="http://www.w3.org/2000/svg" xmlns:xlink="http://www.w3.org/1999/xlink" version="1.1" width="12" height="12"
  viewBox="0 0 24 24">
  <g>
    <g>
      <g>
        <g>
          <path
            d="M21.4047,15.6848Q22.25,13.6863,22.25,11.5Q22.25,9.313749999999999,21.4047,7.31523Q20.5886,5.38583,19.1014,3.8986Q17.6142,2.411366,15.6848,1.595302Q13.6863,0.75,11.5,0.75Q9.313749999999999,0.75,7.31523,1.595302Q5.38584,2.411366,3.8986,3.8986Q2.411366,5.38584,1.595302,7.31523Q0.75,9.313749999999999,0.75,11.5Q0.75,13.6862,1.595302,15.6848Q2.411365,17.6142,3.8986,19.1014Q5.38583,20.5886,7.31523,21.4047Q9.313749999999999,22.25,11.5,22.25Q13.6862,22.25,15.6848,21.4047Q17.6142,20.5886,19.1014,19.1014Q20.5886,17.6142,21.4047,15.6848ZM17.3336,5.666370000000001Q19.75,8.082740000000001,19.75,11.5Q19.75,14.9173,17.3336,17.3336Q14.9173,19.75,11.5,19.75Q8.082740000000001,19.75,5.666370000000001,17.3336Q3.25,14.9173,3.25,11.5Q3.25,8.082740000000001,5.666370000000001,5.666370000000001Q8.082740000000001,3.25,11.5,3.25Q14.9173,3.25,17.3336,5.666370000000001Z"
            fill-rule="evenodd" />
        </g>
        <g>
          <path
            d="M22.88388,21.11612L20.883883,19.116117Q20.796829,19.029062,20.694463,18.96066Q20.592097,18.89226,20.478354,18.84515Q20.364612,18.79804,20.243863,18.77402Q20.123114,18.75,20,18.75Q19.876886,18.75,19.756137,18.77402Q19.635388,18.79804,19.521646,18.84515Q19.407903,18.89226,19.305537,18.96066Q19.203171,19.029062,19.116117,19.116117Q19.029062,19.203171,18.96066,19.305537Q18.89226,19.407903,18.84515,19.521646Q18.79804,19.635388,18.77402,19.756137Q18.75,19.876886,18.75,20Q18.75,20.123114,18.77402,20.243863Q18.79804,20.364612,18.84515,20.478354Q18.89226,20.592097,18.96066,20.694463Q19.029062,20.796829,19.116117,20.883883L21.11612,22.88388Q21.20317,22.97094,21.30554,23.03934Q21.4079,23.10774,21.52165,23.15485Q21.63539,23.20196,21.75614,23.22598Q21.87689,23.25,22,23.25Q22.12311,23.25,22.24386,23.22598Q22.36461,23.20196,22.47835,23.15485Q22.5921,23.10774,22.69446,23.03934Q22.79683,22.97094,22.88388,22.88388Q22.97094,22.79683,23.03934,22.69446Q23.10774,22.5921,23.15485,22.47835Q23.20196,22.36461,23.22598,22.24386Q23.25,22.12311,23.25,22Q23.25,21.87689,23.22598,21.75614Q23.20196,21.63539,23.15485,21.52165Q23.10774,21.4079,23.03934,21.30554Q22.97094,21.20317,22.88388,21.11612Z"
            fill-rule="evenodd" />
        </g>
        <g style="opacity:0;"></g>
      </g>
    </g>
  </g>
</svg>