<svg width="32" height="32" viewBox="0 0 32 32" xmlns="http://www.w3.org/2000/svg">
    <g  fill-rule="nonzero" opacity=".35">
        <path d="M31.71 1.155a1.066 1.066 0 0 0-.865-.864c-6.452-1.14-13.236 1.11-18.153 6.037-2.41 2.41-4.234 5.355-5.28 8.512-.127.384-.031.8.257 1.088l8.404 8.404a1.074 1.074 0 0 0 1.088.256c3.157-1.045 6.101-2.869 8.511-5.28 4.917-4.916 7.179-11.71 6.037-18.153zm-1.985 1.12c.31 2.357.107 4.747-.544 7.05a13.826 13.826 0 0 0-2.687-3.818 13.826 13.826 0 0 0-3.819-2.688 17.712 17.712 0 0 1 7.05-.544zm-5.556 15.53a19.8 19.8 0 0 1-7.061 4.554l-7.456-7.455a19.657 19.657 0 0 1 4.555-7.061 19.911 19.911 0 0 1 5.407-3.85A11.597 11.597 0 0 1 25 7.022a11.545 11.545 0 0 1 3.03 5.386 20.243 20.243 0 0 1-3.85 5.407l-.011-.01z"/>
        <path d="m22.803 10.701.502-.5A1.062 1.062 0 1 0 21.8 8.695l-.512.512c-1.088-.95-2.848-.917-3.883.117a2.845 2.845 0 0 0 0 4.021l1.259 1.259a.708.708 0 0 1 0 1.003.728.728 0 0 1-1.003 0l-2.517-2.517a1.062 1.062 0 1 0-1.504 1.503l1.13 1.131-.5.501a1.062 1.062 0 0 0 .757 1.813c.277 0 .544-.106.757-.309l.512-.512a2.83 2.83 0 0 0 1.877.725c.758 0 1.472-.298 2.016-.831a2.845 2.845 0 0 0 0-4.021l-1.258-1.26a.708.708 0 0 1 0-1.002.718.718 0 0 1 1.002 0l2.517 2.517a1.062 1.062 0 1 0 1.504-1.503l-1.13-1.131-.022-.01z"/>
        <g>
            <path d="M8.298 20.098a1.045 1.045 0 0 0-1.11-.245 11.027 11.027 0 0 0-4.031 2.57C.789 24.78-.353 27.991.096 31.01c.064.47.437.832.896.896.426.064.864.096 1.3.096 2.614 0 5.26-1.13 7.286-3.157 1.152-1.152 2.048-2.55 2.57-4.032a1.066 1.066 0 0 0-.245-1.109l-3.605-3.605zM27.976 21.069l-.266-.8a8.67 8.67 0 0 1-.534.554 24.304 24.304 0 0 1-5.546 4.15l.96.96-2.602 2.602a1.062 1.062 0 0 0 .757 1.813c.277 0 .544-.107.757-.31l5.696-5.695a3.163 3.163 0 0 0 .768-3.274h.01zM3.466 12.003 6.07 9.4l.96.96a23.849 23.849 0 0 1 4.149-5.546c.18-.182.384-.342.576-.523l-.822-.277a3.206 3.206 0 0 0-3.274.768l-5.696 5.695c-.213.214-.309.48-.309.758 0 .277.107.544.31.757a1.062 1.062 0 0 0 1.503 0v.01z"/>
        </g>
    </g>
</svg>
