<svg width="18" height="30" viewBox="0 0 18 30" xmlns="http://www.w3.org/2000/svg">
    <g fill="#484CFD" fill-rule="nonzero">
        <path d="M13.696 0h-.392v2.692c0 1.477-1.236 2.693-2.739 2.693h-3.13c-1.503 0-2.74-1.216-2.74-2.693V0h-.39C1.924 0 0 1.892 0 4.23v21.54C0 28.107 1.925 30 4.304 30h9.392C16.075 30 18 28.108 18 25.77V4.23C18 1.893 16.075 0 13.696 0zm-3.13 25.385H7.434c-.642 0-1.174-.523-1.174-1.154 0-.631.532-1.154 1.174-1.154h3.13c.642 0 1.174.523 1.174 1.154 0 .63-.532 1.154-1.174 1.154z"/>
        <path d="M7.435 3.077h3.13c.22 0 .392-.17.392-.385V0H7.043v2.692c0 .216.173.385.392.385z"/>
    </g>
</svg>
