<svg viewBox="0 0 79 79" xmlns="http://www.w3.org/2000/svg">
    <path d="M39 0c21.54 0 39 17.46 39 39 0 21.324-17.113 38.65-38.355 38.995L39 78C17.46 78 0 60.54 0 39S17.46 0 39 0zm0 10c-16.016 0-29 12.984-29 29s12.984 29 29 29 29-12.984 29-29-12.984-29-29-29zm14.536 17.23a5 5 0 0 1 .486 7.054L38.372 52.25a4.973 4.973 0 0 1-3.484 1.708l-.215.007a4.98 4.98 0 0 1-3.889-1.77l-7.6-8.982a5 5 0 0 1 3.78-8.23l.226.003a4.987 4.987 0 0 1 3.627 1.767l3.839 4.537 11.825-13.574A4.987 4.987 0 0 1 50.133 26h.226a4.98 4.98 0 0 1 3.177 1.229z" fill-rule="nonzero"/>
</svg>
