<svg width="32" height="26" viewBox="0 0 32 26" xmlns="http://www.w3.org/2000/svg">
    <g fill-rule="evenodd" opacity=".35">
        <path d="M29.867 22.4c0 .588-.48 1.067-1.067 1.067H3.733c-.882 0-1.6-.718-1.6-1.6V7.107a3.72 3.72 0 0 0 1.6.36H28.8c.588 0 1.067.479 1.067 1.066V22.4zM3.733 2.133H22.4c.588 0 1.067.48 1.067 1.067v2.133H3.733c-.882 0-1.6-.718-1.6-1.6 0-.882.718-1.6 1.6-1.6zm25.067 3.2h-3.2V3.2c0-1.764-1.436-3.2-3.2-3.2H3.733A3.737 3.737 0 0 0 0 3.733v18.134A3.737 3.737 0 0 0 3.733 25.6H28.8c1.764 0 3.2-1.436 3.2-3.2V8.533c0-1.764-1.436-3.2-3.2-3.2z"/>
        <path d="M22.4 16.533h-1.067a1.067 1.067 0 0 1 0-2.133H22.4a1.067 1.067 0 0 1 0 2.133zm5.333-5.333h-6.21c-2.227 0-4.22 1.623-4.435 3.84a4.271 4.271 0 0 0 4.245 4.693h6.4V11.2zM6.4 19.2H5.333a1.067 1.067 0 0 0 0 2.133H6.4a1.067 1.067 0 0 0 0-2.133M11.733 19.2h-1.066a1.067 1.067 0 0 0 0 2.133h1.066a1.067 1.067 0 0 0 0-2.133"/>
    </g>
</svg>
