<svg width="31" height="31" viewBox="0 0 31 31" xmlns="http://www.w3.org/2000/svg">
    <path d="M15.5 0C24.06 0 31 6.94 31 15.5 31 24.06 24.06 31 15.5 31 6.94 31 0 24.06 0 15.5 0 6.94 6.94 0 15.5 0zm.021 17.261c-4.813 0-9.107 2.597-10.398 6.19l-.295.575a13.507 13.507 0 0 1-2.64-5.383C3.608 24.68 9.03 29.176 15.5 29.176c4.321 0 8.174-2.004 10.68-5.134l-.219-.465c-1.333-3.72-5.627-6.316-10.44-6.316zm-.014-11.227a5.264 5.264 0 0 0-5.262 5.263 5.264 5.264 0 0 0 5.262 5.263 5.264 5.264 0 0 0 5.262-5.263 5.264 5.264 0 0 0-5.262-5.263zm-.007-4.21C7.948 1.824 1.825 7.947 1.825 15.5c0 .242.006.483.019.722l-.013-.313-.006-.402c0-7.55 6.132-13.683 13.682-13.683z" fill="#0B042B" fill-rule="nonzero" fill-opacity=".399"/>
</svg>
