<svg width="27" height="28" viewBox="0 0 27 28" xmlns="http://www.w3.org/2000/svg">
    <path d="M12.886 0C9.842 0 7.364 2.458 7.364 5.478c0 .208.039.407.062.609h2.455c-.041-.197-.063-.4-.063-.609 0-1.677 1.376-3.043 3.068-3.043 1.693 0 3.069 1.366 3.069 3.043 0 .208-.022.412-.063.609h2.455c.023-.202.062-.4.062-.609 0-.475-.081-.93-.196-1.37.4-.285.887-.456 1.423-.456 1.37 0 2.455 1.076 2.455 2.435h2.454c0-2.675-2.212-4.87-4.909-4.87a4.91 4.91 0 0 0-2.56.735C16.062.77 14.571 0 12.886 0zM3.682 3.652C1.663 3.652 0 5.302 0 7.304v17.044C0 26.365 1.648 28 3.682 28h20.863A2.444 2.444 0 0 0 27 25.565V10.957a2.444 2.444 0 0 0-2.455-2.435H3.682c-.694 0-1.227-.53-1.227-1.218s.533-1.217 1.227-1.217h1.227V3.652H3.682zM22.09 15.826a2.444 2.444 0 0 1 2.454 2.435 2.444 2.444 0 0 1-2.454 2.435 2.444 2.444 0 0 1-2.455-2.435 2.444 2.444 0 0 1 2.455-2.435z" fill="#484CFD" fill-rule="nonzero"/>
</svg>
